<svg width="91" height="91" viewBox="0 0 91 91" fill="none" xmlns="http://www.w3.org/2000/svg">
<path fill-rule="evenodd" clip-rule="evenodd" d="M45.5 1.07495C28.7979 1.07495 15.2532 14.6162 15.2532 31.3218C15.2532 44.6853 23.9195 56.0233 35.9379 60.0223C37.4493 60.3024 38.0046 59.3661 38.0046 58.567C38.0046 57.8462 37.9761 55.4631 37.9633 52.9364C29.548 54.7657 27.7728 49.3675 27.7728 49.3675C26.3971 45.8711 24.4143 44.9412 24.4143 44.9412C21.6701 43.0643 24.6205 43.1027 24.6205 43.1027C27.6583 43.316 29.2579 46.2202 29.2579 46.2202C31.9552 50.8441 36.3339 49.5069 38.0593 48.7341C38.3316 46.779 39.1151 45.4439 39.9803 44.6888C33.2619 43.9246 26.1995 41.3304 26.1995 29.7407C26.1995 26.4384 27.381 23.7404 29.3162 21.6218C29.002 20.8596 27.9669 17.7827 29.6091 13.6166C29.6091 13.6166 32.1486 12.8047 37.9271 16.7184C40.3407 16.048 42.9285 15.7117 45.4986 15.7004C48.0693 15.7124 50.6586 16.0487 53.0757 16.7184C58.8486 12.8054 61.3852 13.6173 61.3852 13.6173C63.0317 17.7834 61.9966 20.8596 61.6824 21.6225C63.6218 23.7396 64.7948 26.4384 64.7948 29.7414C64.7948 41.3581 57.7189 43.916 50.9835 44.664C52.0683 45.6024 53.0352 47.4437 53.0352 50.2661C53.0352 54.3128 53.0011 57.5696 53.0011 58.5656C53.0011 59.369 53.5457 60.3131 55.0785 60.0159C67.0905 56.0119 75.7454 44.6782 75.7454 31.3189C75.7468 14.6169 62.2049 1.07495 45.5 1.07495Z" fill="#181616"/>
<path d="M26.7099 44.5018C26.6424 44.6525 26.4056 44.6973 26.1909 44.5942C25.9705 44.4947 25.8483 44.2906 25.9193 44.1392C25.9833 43.9857 26.2208 43.9423 26.4405 44.0454C26.6609 44.1449 26.7853 44.3511 26.7099 44.5018ZM27.9349 45.8696C27.7905 46.0026 27.5083 45.9407 27.3163 45.7289C27.1187 45.5177 27.0817 45.2355 27.2282 45.1004C27.3761 44.9667 27.6498 45.0293 27.8467 45.2405C28.0458 45.4537 28.0849 45.7331 27.9341 45.8689L27.9349 45.8696ZM29.1271 47.61C28.9423 47.7394 28.6387 47.6185 28.4517 47.3491C28.2654 47.0811 28.2654 46.759 28.4553 46.6289C28.643 46.4995 28.9415 46.6161 29.1307 46.8827C29.3169 47.1564 29.3169 47.4792 29.1271 47.61ZM30.7608 49.2935C30.5952 49.4762 30.2418 49.4272 29.9838 49.1776C29.7193 48.9338 29.6461 48.5876 29.8117 48.4048C29.9802 48.2221 30.335 48.2733 30.5952 48.5207C30.8582 48.7639 30.9379 49.1115 30.7608 49.2935ZM33.0159 50.2703C32.942 50.5078 32.6022 50.6151 32.2595 50.5149C31.9168 50.4111 31.6936 50.1338 31.7618 49.895C31.8329 49.6561 32.1756 49.5445 32.5204 49.6518C32.8617 49.7542 33.0863 50.0286 33.0159 50.2703ZM35.49 50.4516C35.4992 50.7005 35.2085 50.9081 34.8487 50.9123C34.4876 50.9208 34.1947 50.7189 34.1904 50.473C34.1904 50.2213 34.4748 50.0165 34.8359 50.0109C35.1957 50.0037 35.49 50.2042 35.49 50.4516ZM37.7934 50.0599C37.8361 50.303 37.5873 50.5533 37.2297 50.6194C36.8784 50.6848 36.5543 50.5341 36.5088 50.2924C36.4661 50.0436 36.7199 49.7947 37.0704 49.7293C37.428 49.6668 37.7479 49.8125 37.7934 50.0599Z" fill="#181616"/>
<path d="M17.6703 76.9961H10.0633C9.96904 76.9961 9.87863 77.0335 9.81196 77.1002C9.7453 77.1668 9.70785 77.2573 9.70785 77.3515V81.0712C9.70785 81.1654 9.7453 81.2558 9.81196 81.3225C9.87863 81.3892 9.96904 81.4266 10.0633 81.4266H13.0301V86.0477C13.0301 86.0477 12.3639 86.2752 10.5204 86.2752C8.34783 86.2752 5.31141 85.4818 5.31141 78.8047C5.31141 72.1269 8.47366 71.2474 11.4425 71.2474C14.0119 71.2474 15.1181 71.6996 15.8233 71.9178C16.0437 71.9847 16.2499 71.7643 16.2499 71.5681L17.098 67.9743C17.0994 67.9205 17.0877 67.8671 17.0639 67.8188C17.0402 67.7705 17.005 67.7287 16.9615 67.697C16.675 67.4923 14.9304 66.5168 10.5219 66.5168C5.44293 66.5168 0.233185 68.6767 0.233185 79.0649C0.233185 89.4517 6.19795 90.9994 11.2243 90.9994C15.3861 90.9994 17.9106 89.2206 17.9106 89.2206C18.0144 89.1638 18.0258 89.018 18.0258 88.9505V77.3508C18.0258 77.2566 17.9884 77.1661 17.9217 77.0995C17.855 77.0328 17.7646 76.9961 17.6703 76.9961ZM56.5238 67.4041H52.2397C52.1929 67.4043 52.1467 67.4137 52.1036 67.4318C52.0605 67.4499 52.0214 67.4763 51.9885 67.5095C51.9556 67.5427 51.9296 67.5821 51.9119 67.6253C51.8943 67.6686 51.8854 67.715 51.8856 67.7617L51.8871 76.0399H45.2099V67.7617C45.2102 67.715 45.2013 67.6687 45.1837 67.6255C45.1661 67.5823 45.1401 67.5429 45.1073 67.5097C45.0745 67.4765 45.0355 67.4501 44.9925 67.432C44.9494 67.4138 44.9033 67.4044 44.8566 67.4041H40.5732C40.5265 67.4043 40.4802 67.4137 40.4371 67.4318C40.394 67.4499 40.3549 67.4763 40.322 67.5095C40.2891 67.5427 40.2631 67.5821 40.2455 67.6253C40.2278 67.6686 40.2189 67.715 40.2192 67.7617V90.1776C40.2192 90.3745 40.3784 90.5352 40.5732 90.5352H44.8566C44.9033 90.5349 44.9496 90.5254 44.9926 90.5072C45.0357 90.4891 45.0748 90.4626 45.1076 90.4293C45.1404 90.396 45.1663 90.3566 45.1839 90.3133C45.2015 90.2699 45.2103 90.2236 45.2099 90.1768V80.5891H51.8871L51.8757 90.1768C51.8757 90.3745 52.0349 90.5352 52.2311 90.5352H56.5238C56.5705 90.5349 56.6168 90.5254 56.6598 90.5072C56.7029 90.4891 56.742 90.4626 56.7748 90.4293C56.8076 90.396 56.8335 90.3566 56.8511 90.3133C56.8686 90.2699 56.8775 90.2236 56.8771 90.1768V67.761C56.8776 67.7143 56.8688 67.668 56.8513 67.6247C56.8337 67.5814 56.8078 67.542 56.7749 67.5088C56.742 67.4757 56.7029 67.4493 56.6598 67.4313C56.6167 67.4134 56.5705 67.4041 56.5238 67.4041ZM22.9917 67.9138C21.4675 67.9138 20.2304 69.1601 20.2304 70.7028C20.2304 72.2434 21.4675 73.4933 22.9917 73.4933C24.5174 73.4933 25.7537 72.2434 25.7537 70.7028C25.7537 69.1601 24.5167 67.9138 22.9917 67.9138ZM25.0932 74.7445H20.8234C20.6271 74.7445 20.4522 74.9464 20.4522 75.1427V89.9671C20.4522 90.4029 20.7238 90.5323 21.075 90.5323H24.9212C25.3442 90.5323 25.4473 90.3247 25.4473 89.96V75.1021C25.4475 75.0554 25.4385 75.0092 25.4208 74.966C25.4031 74.9228 25.3771 74.8835 25.3442 74.8504C25.3113 74.8172 25.2722 74.7909 25.2292 74.7728C25.1861 74.7548 25.1399 74.7447 25.0932 74.7445ZM73.1569 74.7779H68.9055C68.8588 74.7783 68.8126 74.7879 68.7697 74.8061C68.7267 74.8243 68.6877 74.8508 68.6549 74.8841C68.6222 74.9173 68.5963 74.9567 68.5788 75C68.5613 75.0433 68.5525 75.0896 68.5528 75.1363V86.1274C68.5528 86.1274 67.4722 86.9165 65.9402 86.9165C64.4081 86.9165 64.0014 86.2219 64.0014 84.7211V75.1363C64.0018 75.0895 63.993 75.0432 63.9754 74.9998C63.9578 74.9565 63.9319 74.9171 63.8991 74.8838C63.8663 74.8505 63.8272 74.824 63.7841 74.8059C63.7411 74.7877 63.6948 74.7782 63.6481 74.7779H59.3341C59.2397 74.7787 59.1495 74.8168 59.0831 74.884C59.0167 74.9511 58.9797 75.0418 58.9801 75.1363V85.4463C58.9801 89.9039 61.4648 90.9944 64.8823 90.9944C67.6862 90.9944 69.947 89.4446 69.947 89.4446C69.947 89.4446 70.0536 90.2622 70.1034 90.3581C70.1532 90.4548 70.279 90.5522 70.4162 90.5522L73.1604 90.5401C73.2073 90.5399 73.2537 90.5305 73.2969 90.5124C73.3401 90.4943 73.3794 90.4679 73.4124 90.4346C73.4454 90.4013 73.4715 90.3619 73.4893 90.3185C73.507 90.2751 73.5161 90.2287 73.5159 90.1818L73.5138 75.1341C73.5134 75.0398 73.4759 74.9495 73.4093 74.8827C73.3428 74.8159 73.2526 74.778 73.1583 74.7772L73.1569 74.7779ZM84.775 74.2746C82.3607 74.2746 80.7184 75.3517 80.7184 75.3517V67.761C80.7187 67.7143 80.7098 67.668 80.6922 67.6248C80.6746 67.5816 80.6486 67.5422 80.6158 67.509C80.583 67.4758 80.544 67.4494 80.5009 67.4313C80.4579 67.4131 80.4118 67.4037 80.3651 67.4034H76.0703C76.0234 67.4034 75.977 67.4126 75.9338 67.4306C75.8905 67.4486 75.8512 67.475 75.8182 67.5083C75.7851 67.5415 75.759 67.5809 75.7413 67.6243C75.7235 67.6677 75.7146 67.7141 75.7148 67.761V90.1768C75.7146 90.2237 75.7235 90.2702 75.7413 90.3135C75.759 90.3569 75.7851 90.3963 75.8182 90.4296C75.8512 90.4628 75.8905 90.4892 75.9338 90.5072C75.977 90.5252 76.0234 90.5345 76.0703 90.5345H79.0506C79.1856 90.5345 79.2866 90.4655 79.3612 90.3439C79.4345 90.2231 79.5418 89.3102 79.5418 89.3102C79.5418 89.3102 81.2978 90.9738 84.6236 90.9738C88.5266 90.9738 90.7661 88.9946 90.7661 82.0857C90.7661 75.1768 87.1901 74.2739 84.7743 74.2739L84.775 74.2746ZM83.0972 86.9037C81.6234 86.8589 80.6231 86.1899 80.6231 86.1899V79.0912C80.6231 79.0912 81.6099 78.4869 82.8199 78.3774C84.3506 78.2402 85.8258 78.703 85.8258 82.3544C85.8258 86.2055 85.1611 86.9655 83.0979 86.903L83.0972 86.9037ZM37.8183 86.8198C37.6313 86.8198 37.1522 86.8959 36.6595 86.8959C35.0812 86.8959 34.5459 86.1622 34.5459 85.2124V78.9092H37.7593C37.8062 78.9092 37.8527 78.8999 37.896 78.8819C37.9393 78.8638 37.9786 78.8374 38.0117 78.8041C38.0447 78.7708 38.0708 78.7312 38.0885 78.6878C38.1062 78.6443 38.1152 78.5978 38.1148 78.5509V75.0986C38.115 75.0518 38.1059 75.0054 38.0881 74.9621C38.0703 74.9188 38.0442 74.8795 38.0112 74.8463C37.9781 74.8131 37.9389 74.7868 37.8957 74.7689C37.8524 74.7509 37.8061 74.7417 37.7593 74.7417H34.5459L34.5409 70.4974C34.5409 70.336 34.4584 70.2557 34.2722 70.2557H29.8928C29.7236 70.2557 29.6319 70.331 29.6319 70.4938V74.8803C29.6319 74.8803 27.4372 75.41 27.2893 75.4526C27.2155 75.4742 27.1506 75.5191 27.1045 75.5806C27.0583 75.6421 27.0334 75.717 27.0334 75.7939V78.5502C27.0331 78.5969 27.042 78.6431 27.0596 78.6864C27.0772 78.7296 27.1032 78.769 27.136 78.8022C27.1688 78.8354 27.2078 78.8618 27.2509 78.8799C27.2939 78.898 27.34 78.9075 27.3867 78.9078H29.6319V85.5394C29.6319 90.4662 33.087 90.9496 35.4189 90.9496C36.4832 90.9496 37.7579 90.6084 37.9683 90.5302C38.0963 90.4825 38.1695 90.351 38.1695 90.2081L38.1724 87.176C38.1709 87.082 38.133 86.9923 38.0667 86.9257C38.0004 86.8592 37.9108 86.8209 37.8169 86.8191L37.8183 86.8198Z" fill="#100E0F"/>
</svg>
