<svg xmlns="http://www.w3.org/2000/svg" width="42" height="42" viewBox="0 0 42 42" fill="none">
  <path fill-rule="evenodd" clip-rule="evenodd" d="M20.9998 0C9.40346 0 0 9.63947 0 21.5317C0 31.0453 6.01709 39.1159 14.361 41.9633C15.4101 42.163 15.7954 41.4963 15.7954 40.9276C15.7954 40.4141 15.776 38.718 15.7669 36.9188C9.92474 38.2213 8.69197 34.3783 8.69197 34.3783C7.73671 31.8896 6.36032 31.2278 6.36032 31.2278C4.45466 29.8915 6.50394 29.9193 6.50394 29.9193C8.61234 30.0708 9.72304 32.1381 9.72304 32.1381C11.596 35.4291 14.6357 34.4778 15.834 33.928C16.0225 32.5364 16.5667 31.5862 17.1673 31.0485C12.5029 30.5047 7.59934 28.6581 7.59934 20.4078C7.59934 18.057 8.42003 16.1363 9.76338 14.628C9.545 14.0861 8.8262 11.8961 9.96647 8.93028C9.96647 8.93028 11.7296 8.35159 15.7426 11.1374C17.418 10.6599 19.2148 10.42 20.9998 10.4118C22.7838 10.42 24.5816 10.6592 26.2602 11.1366C30.2684 8.35088 32.0294 8.92957 32.0294 8.92957C33.1724 11.895 32.4536 14.0854 32.2356 14.6273C33.5821 16.1356 34.3968 18.0563 34.3968 20.4071C34.3968 28.677 29.4842 30.4976 24.808 31.031C25.5616 31.6992 26.2327 33.0099 26.2327 35.0184C26.2327 37.8993 26.2084 40.218 26.2084 40.9272C26.2084 41.5002 26.5868 42.1716 27.6509 41.9601C35.9899 39.1098 42 31.0417 42 21.5317C41.9997 9.64018 32.5972 0 20.9998 0Z" fill="#181616"/>
</svg>