<svg width="39" height="39" viewBox="0 0 39 39" fill="none" xmlns="http://www.w3.org/2000/svg">
<g clip-path="url(#clip0_296_49)">
<path d="M35.3438 0.914203H3.65625C2.93728 0.906886 2.24478 1.18508 1.73068 1.68775C1.21659 2.19042 0.922902 2.8765 0.914062 3.59545V35.4109C0.9245 36.1288 1.21889 36.8133 1.73281 37.3147C2.24673 37.816 2.93832 38.0934 3.65625 38.0861H35.3438C36.0628 38.0918 36.7548 37.8126 37.2686 37.3097C37.7825 36.8067 38.0763 36.1208 38.0859 35.4018V3.58631C38.0731 2.86947 37.7779 2.18666 37.2644 1.6863C36.7509 1.18594 36.0607 0.908469 35.3438 0.914203Z" fill="#0076B2"/>
<path d="M6.41672 14.8477H11.9346V32.6018H6.41672V14.8477ZM9.17719 6.01172C9.81006 6.01172 10.4287 6.19943 10.9549 6.5511C11.4811 6.90277 11.8911 7.4026 12.1332 7.98735C12.3752 8.57211 12.4384 9.21552 12.3147 9.8362C12.191 10.4569 11.886 11.0269 11.4383 11.4742C10.9906 11.9215 10.4202 12.226 9.79945 12.3491C9.17866 12.4722 8.53531 12.4084 7.95079 12.1658C7.36626 11.9231 6.86682 11.5126 6.51565 10.9861C6.16448 10.4596 5.97737 9.84077 5.97797 9.20789C5.97878 8.35993 6.31619 7.54698 6.91607 6.94767C7.51596 6.34836 8.32923 6.01172 9.17719 6.01172ZM15.3959 14.8477H20.6852V17.2852H20.7584C21.4957 15.8897 23.2934 14.418 25.9777 14.418C31.5656 14.4059 32.6016 18.0834 32.6016 22.8518V32.6018H27.0837V23.9639C27.0837 21.9073 27.0471 19.2595 24.2166 19.2595C21.386 19.2595 20.9046 21.502 20.9046 23.8298V32.6018H15.3959V14.8477Z" fill="white"/>
</g>
<defs>
<clipPath id="clip0_296_49">
<rect width="39" height="39" fill="white"/>
</clipPath>
</defs>
</svg>
