<svg width="70" height="70" viewBox="0 0 70 70" fill="none" xmlns="http://www.w3.org/2000/svg">
<path fill-rule="evenodd" clip-rule="evenodd" d="M35 2.79053C16.7634 2.79053 1.97531 17.5753 1.97531 35.8152C1.97531 50.4069 11.4379 62.7854 24.5596 67.1528C26.2095 67.459 26.8155 66.4364 26.8155 65.5641C26.8155 64.7766 26.7848 62.1751 26.7706 59.4156C17.5831 61.4133 15.6445 55.5191 15.6445 55.5191C14.1422 51.7019 11.9777 50.6869 11.9777 50.6869C8.98078 48.6372 12.2035 48.6799 12.2035 48.6799C15.5192 48.9123 17.2659 52.0831 17.2659 52.0831C20.2114 57.1308 24.9916 55.6717 26.8762 54.8284C27.1726 52.694 28.0284 51.2365 28.9729 50.4119C21.6377 49.5779 13.9262 46.7456 13.9262 34.0915C13.9262 30.4859 15.2168 27.5399 17.3294 25.2266C16.9859 24.3954 15.8555 21.0365 17.6487 16.4876C17.6487 16.4876 20.4214 15.6 26.7323 19.8727C29.3672 19.1404 32.1929 18.7724 35 18.7598C37.8055 18.7724 40.6328 19.1394 43.2726 19.8716C49.5759 15.5989 52.3452 16.4865 52.3452 16.4865C54.1428 21.0348 53.0124 24.3943 52.6695 25.2255C54.787 27.5388 56.0684 30.4848 56.0684 34.0904C56.0684 46.7746 48.3427 49.5669 40.9888 50.3851C42.1739 51.4099 43.2294 53.4202 43.2294 56.5008C43.2294 60.9195 43.1911 64.4758 43.1911 65.5636C43.1911 66.4424 43.7861 67.4722 45.4595 67.1479C58.5736 62.7762 68.0252 50.4015 68.0252 35.8152C68.0247 17.5764 53.2383 2.79053 35 2.79053Z" fill="white"/>
<path d="M14.4834 50.206C14.4107 50.3701 14.1526 50.4193 13.9174 50.3072C13.6768 50.2 13.5428 49.9763 13.6205 49.8117C13.6916 49.6422 13.9502 49.5957 14.1892 49.7089C14.4298 49.8166 14.5665 50.0425 14.4829 50.2066L14.4834 50.206ZM15.8211 51.6984C15.6641 51.8444 15.3562 51.7766 15.1473 51.5453C14.9308 51.3156 14.8903 51.0077 15.0505 50.8595C15.2135 50.7141 15.5121 50.783 15.7287 51.0126C15.9441 51.2456 15.9868 51.5508 15.8216 51.699L15.8211 51.6984ZM17.1237 53.5999C16.9214 53.741 16.59 53.6092 16.3855 53.3155C16.1831 53.0213 16.1831 52.6686 16.3909 52.528C16.5949 52.3869 16.9214 52.5144 17.1292 52.8053C17.3305 53.1034 17.3305 53.4566 17.1237 53.5999ZM18.9071 55.438C18.7266 55.6376 18.3405 55.584 18.0583 55.3122C17.7701 55.0459 17.6898 54.6669 17.8708 54.4678C18.0545 54.2676 18.4423 54.3234 18.7261 54.5936C19.0143 54.8594 19.1012 55.2389 18.9082 55.4374L18.9071 55.438ZM21.368 56.5049C21.2876 56.7636 20.9169 56.8812 20.5423 56.7707C20.1687 56.6575 19.9243 56.3551 20.0008 56.0937C20.0774 55.8328 20.4509 55.7109 20.8277 55.8284C21.2012 55.9411 21.4457 56.2419 21.368 56.5049ZM24.0712 56.7023C24.0805 56.9747 23.7633 57.2 23.3712 57.2055C22.9758 57.2148 22.6559 56.9938 22.6521 56.7259C22.6521 56.4508 22.9627 56.2282 23.3576 56.2205C23.7497 56.2134 24.0718 56.4322 24.0718 56.7018L24.0712 56.7023ZM26.5858 56.2747C26.6328 56.5399 26.3599 56.8128 25.97 56.8855C25.5872 56.9566 25.2317 56.7915 25.1825 56.5284C25.1355 56.2561 25.4133 55.9832 25.7961 55.9126C26.1865 55.8454 26.5365 56.0051 26.5858 56.2747Z" fill="white"/>
</svg>
